<mxfile host="app.diagrams.net" agent="Mozilla/5.0 (Windows NT 10.0; Win64; x64) AppleWebKit/537.36 (KHTML, like Gecko) Chrome/138.0.0.0 Safari/537.36" version="28.0.4">
  <diagram name="Page-1" id="OPk5kjBwi-IAKE08nCbM">
    <mxGraphModel dx="872" dy="-354" grid="1" gridSize="10" guides="1" tooltips="1" connect="1" arrows="1" fold="1" page="1" pageScale="1" pageWidth="1169" pageHeight="827" math="0" shadow="0">
      <root>
        <mxCell id="0" />
        <mxCell id="1" parent="0" />
        <mxCell id="xFs0KkS1LcG-RcoHHxcv-58" style="edgeStyle=orthogonalEdgeStyle;rounded=0;orthogonalLoop=1;jettySize=auto;html=1;exitX=1;exitY=0.25;exitDx=0;exitDy=0;entryX=0;entryY=0.75;entryDx=0;entryDy=0;" edge="1" parent="1" source="xFs0KkS1LcG-RcoHHxcv-43" target="xFs0KkS1LcG-RcoHHxcv-7">
          <mxGeometry relative="1" as="geometry" />
        </mxCell>
        <mxCell id="xFs0KkS1LcG-RcoHHxcv-43" value="" style="rounded=1;whiteSpace=wrap;html=1;fillColor=#eeeeee;strokeColor=#36393d;" vertex="1" parent="1">
          <mxGeometry x="90" y="1130" width="170" height="300" as="geometry" />
        </mxCell>
        <mxCell id="xFs0KkS1LcG-RcoHHxcv-59" style="edgeStyle=orthogonalEdgeStyle;rounded=0;orthogonalLoop=1;jettySize=auto;html=1;exitX=0.5;exitY=1;exitDx=0;exitDy=0;entryX=0.5;entryY=0;entryDx=0;entryDy=0;" edge="1" parent="1" source="xFs0KkS1LcG-RcoHHxcv-3" target="xFs0KkS1LcG-RcoHHxcv-7">
          <mxGeometry relative="1" as="geometry" />
        </mxCell>
        <mxCell id="xFs0KkS1LcG-RcoHHxcv-3" value="&lt;font face=&quot;Times New Roman&quot; style=&quot;color: rgb(51, 0, 0); font-size: 16px;&quot;&gt;LULC Maps&amp;nbsp;&lt;/font&gt;&lt;div&gt;&lt;font face=&quot;Times New Roman&quot; style=&quot;color: rgb(51, 0, 0); font-size: 16px;&quot;&gt;(2004, 2014, 2024)&lt;/font&gt;&lt;/div&gt;" style="rounded=1;whiteSpace=wrap;html=1;fillColor=#f5f5f5;fontColor=#333333;strokeColor=#666666;" vertex="1" parent="1">
          <mxGeometry x="300" y="1130" width="130" height="50" as="geometry" />
        </mxCell>
        <mxCell id="xFs0KkS1LcG-RcoHHxcv-60" style="edgeStyle=orthogonalEdgeStyle;rounded=0;orthogonalLoop=1;jettySize=auto;html=1;exitX=0.5;exitY=1;exitDx=0;exitDy=0;" edge="1" parent="1" source="xFs0KkS1LcG-RcoHHxcv-7" target="xFs0KkS1LcG-RcoHHxcv-9">
          <mxGeometry relative="1" as="geometry" />
        </mxCell>
        <mxCell id="xFs0KkS1LcG-RcoHHxcv-7" value="&lt;font face=&quot;Times New Roman&quot; style=&quot;color: rgb(51, 0, 0); font-size: 16px;&quot;&gt;Dataset&amp;nbsp;&lt;/font&gt;" style="rounded=0;whiteSpace=wrap;html=1;fillColor=#f5f5f5;fontColor=#333333;strokeColor=#666666;" vertex="1" parent="1">
          <mxGeometry x="300" y="1210" width="130" height="30" as="geometry" />
        </mxCell>
        <mxCell id="xFs0KkS1LcG-RcoHHxcv-9" value="&lt;font style=&quot;color: rgb(51, 0, 0); font-size: 16px;&quot; face=&quot;Times New Roman&quot;&gt;Pearson&#39;s correlation analysis on spatial variables&amp;nbsp;&lt;/font&gt;" style="rounded=0;whiteSpace=wrap;html=1;fillColor=#f5f5f5;fontColor=#333333;strokeColor=#666666;" vertex="1" parent="1">
          <mxGeometry x="300" y="1260" width="130" height="60" as="geometry" />
        </mxCell>
        <mxCell id="xFs0KkS1LcG-RcoHHxcv-56" style="edgeStyle=orthogonalEdgeStyle;rounded=0;orthogonalLoop=1;jettySize=auto;html=1;exitX=1;exitY=0.5;exitDx=0;exitDy=0;entryX=0;entryY=0.5;entryDx=0;entryDy=0;" edge="1" parent="1" source="xFs0KkS1LcG-RcoHHxcv-10" target="xFs0KkS1LcG-RcoHHxcv-12">
          <mxGeometry relative="1" as="geometry" />
        </mxCell>
        <mxCell id="xFs0KkS1LcG-RcoHHxcv-10" value="&lt;font face=&quot;Times New Roman&quot; style=&quot;font-weight: normal; color: rgb(51, 0, 0); font-size: 16px;&quot;&gt;LULC Change detection&lt;br&gt;(2004-2014, 2014-2024, 2004- 2024)&lt;/font&gt;" style="rounded=0;whiteSpace=wrap;html=1;fontStyle=1;fillColor=#f5f5f5;fontColor=#333333;strokeColor=#666666;" vertex="1" parent="1">
          <mxGeometry x="300" y="1340" width="160" height="70" as="geometry" />
        </mxCell>
        <mxCell id="xFs0KkS1LcG-RcoHHxcv-55" style="edgeStyle=orthogonalEdgeStyle;rounded=0;orthogonalLoop=1;jettySize=auto;html=1;exitX=1;exitY=0.5;exitDx=0;exitDy=0;entryX=0;entryY=0.5;entryDx=0;entryDy=0;" edge="1" parent="1" source="xFs0KkS1LcG-RcoHHxcv-12" target="xFs0KkS1LcG-RcoHHxcv-13">
          <mxGeometry relative="1" as="geometry" />
        </mxCell>
        <mxCell id="xFs0KkS1LcG-RcoHHxcv-12" value="&lt;font style=&quot;font-weight: normal; color: rgb(51, 0, 0); font-size: 16px;&quot; face=&quot;Times New Roman&quot;&gt;Artificial Neural Network (ANN)&amp;nbsp; Model&lt;/font&gt;" style="rounded=0;whiteSpace=wrap;html=1;fontStyle=1;fillColor=#f5f5f5;fontColor=#333333;strokeColor=#666666;" vertex="1" parent="1">
          <mxGeometry x="480" y="1150" width="160" height="81" as="geometry" />
        </mxCell>
        <mxCell id="xFs0KkS1LcG-RcoHHxcv-13" value="&lt;font face=&quot;Times New Roman&quot; style=&quot;font-weight: normal; color: rgb(51, 0, 0); font-size: 16px;&quot;&gt;Transition probability matrix and Transition Area (2004-2014)&amp;nbsp;&lt;/font&gt;" style="rounded=0;whiteSpace=wrap;html=1;fontStyle=1;fillColor=#f5f5f5;fontColor=#333333;strokeColor=#666666;" vertex="1" parent="1">
          <mxGeometry x="700" y="1155.5" width="160" height="70" as="geometry" />
        </mxCell>
        <mxCell id="xFs0KkS1LcG-RcoHHxcv-63" style="edgeStyle=orthogonalEdgeStyle;rounded=0;orthogonalLoop=1;jettySize=auto;html=1;exitX=0.5;exitY=1;exitDx=0;exitDy=0;entryX=0.5;entryY=0;entryDx=0;entryDy=0;" edge="1" parent="1" source="xFs0KkS1LcG-RcoHHxcv-15" target="xFs0KkS1LcG-RcoHHxcv-17">
          <mxGeometry relative="1" as="geometry" />
        </mxCell>
        <mxCell id="xFs0KkS1LcG-RcoHHxcv-15" value="&lt;font face=&quot;Times New Roman&quot; style=&quot;font-weight: normal; color: rgb(51, 0, 0); font-size: 16px;&quot;&gt;Cellular Automata (CA)&amp;nbsp; Model&lt;/font&gt;" style="rounded=0;whiteSpace=wrap;html=1;fontStyle=1;fillColor=#f5f5f5;fontColor=#333333;strokeColor=#666666;" vertex="1" parent="1">
          <mxGeometry x="494" y="1260" width="116" height="55" as="geometry" />
        </mxCell>
        <mxCell id="xFs0KkS1LcG-RcoHHxcv-53" style="edgeStyle=orthogonalEdgeStyle;rounded=0;orthogonalLoop=1;jettySize=auto;html=1;exitX=0.25;exitY=1;exitDx=0;exitDy=0;entryX=0.25;entryY=0;entryDx=0;entryDy=0;" edge="1" parent="1" source="xFs0KkS1LcG-RcoHHxcv-17" target="xFs0KkS1LcG-RcoHHxcv-20">
          <mxGeometry relative="1" as="geometry" />
        </mxCell>
        <mxCell id="xFs0KkS1LcG-RcoHHxcv-17" value="&lt;font face=&quot;Times New Roman&quot; style=&quot;font-weight: normal; color: rgb(51, 0, 0); font-size: 16px;&quot;&gt;Simulated LULC Map (2024)&lt;/font&gt;" style="rounded=0;whiteSpace=wrap;html=1;fontStyle=1;fillColor=#f5f5f5;fontColor=#333333;strokeColor=#666666;" vertex="1" parent="1">
          <mxGeometry x="494" y="1350" width="116" height="40" as="geometry" />
        </mxCell>
        <mxCell id="xFs0KkS1LcG-RcoHHxcv-47" style="edgeStyle=orthogonalEdgeStyle;rounded=0;orthogonalLoop=1;jettySize=auto;html=1;exitX=0.5;exitY=0;exitDx=0;exitDy=0;entryX=0;entryY=0.5;entryDx=0;entryDy=0;" edge="1" parent="1" source="xFs0KkS1LcG-RcoHHxcv-20" target="xFs0KkS1LcG-RcoHHxcv-26">
          <mxGeometry relative="1" as="geometry" />
        </mxCell>
        <mxCell id="xFs0KkS1LcG-RcoHHxcv-20" value="&lt;span style=&quot;font-weight: normal;&quot;&gt;&lt;font face=&quot;Times New Roman&quot; style=&quot;color: rgb(51, 0, 0); font-size: 16px;&quot;&gt;Model Validation&lt;/font&gt;&lt;/span&gt;" style="rounded=0;whiteSpace=wrap;html=1;fontStyle=1;fillColor=#f5f5f5;fontColor=#333333;strokeColor=#666666;" vertex="1" parent="1">
          <mxGeometry x="494" y="1430" width="116" height="40" as="geometry" />
        </mxCell>
        <mxCell id="xFs0KkS1LcG-RcoHHxcv-48" style="edgeStyle=orthogonalEdgeStyle;rounded=0;orthogonalLoop=1;jettySize=auto;html=1;exitX=0.5;exitY=0;exitDx=0;exitDy=0;entryX=1;entryY=0.5;entryDx=0;entryDy=0;" edge="1" parent="1" source="xFs0KkS1LcG-RcoHHxcv-26" target="xFs0KkS1LcG-RcoHHxcv-15">
          <mxGeometry relative="1" as="geometry" />
        </mxCell>
        <mxCell id="xFs0KkS1LcG-RcoHHxcv-64" value="&lt;b&gt;&lt;font face=&quot;Times New Roman&quot;&gt;NO&lt;/font&gt;&lt;/b&gt;" style="edgeLabel;html=1;align=center;verticalAlign=middle;resizable=0;points=[];" vertex="1" connectable="0" parent="xFs0KkS1LcG-RcoHHxcv-48">
          <mxGeometry x="-0.6174" relative="1" as="geometry">
            <mxPoint as="offset" />
          </mxGeometry>
        </mxCell>
        <mxCell id="xFs0KkS1LcG-RcoHHxcv-49" style="edgeStyle=orthogonalEdgeStyle;rounded=0;orthogonalLoop=1;jettySize=auto;html=1;exitX=0.5;exitY=1;exitDx=0;exitDy=0;entryX=1;entryY=0.5;entryDx=0;entryDy=0;" edge="1" parent="1" source="xFs0KkS1LcG-RcoHHxcv-26" target="xFs0KkS1LcG-RcoHHxcv-29">
          <mxGeometry relative="1" as="geometry" />
        </mxCell>
        <mxCell id="xFs0KkS1LcG-RcoHHxcv-65" value="&lt;font face=&quot;Times New Roman&quot; style=&quot;font-size: 12px;&quot;&gt;&lt;b&gt;YES&lt;/b&gt;&lt;/font&gt;" style="edgeLabel;html=1;align=center;verticalAlign=middle;resizable=0;points=[];" vertex="1" connectable="0" parent="xFs0KkS1LcG-RcoHHxcv-49">
          <mxGeometry x="-0.3" y="-1" relative="1" as="geometry">
            <mxPoint as="offset" />
          </mxGeometry>
        </mxCell>
        <mxCell id="xFs0KkS1LcG-RcoHHxcv-26" value="&lt;font style=&quot;color: rgb(51, 0, 0); font-size: 16px;&quot; face=&quot;Times New Roman&quot;&gt;Decision&amp;nbsp;&lt;/font&gt;" style="rhombus;whiteSpace=wrap;html=1;fillColor=#f5f5f5;fontColor=#333333;strokeColor=#666666;" vertex="1" parent="1">
          <mxGeometry x="640" y="1380" width="100" height="50" as="geometry" />
        </mxCell>
        <mxCell id="xFs0KkS1LcG-RcoHHxcv-54" style="edgeStyle=orthogonalEdgeStyle;rounded=0;orthogonalLoop=1;jettySize=auto;html=1;exitX=0.5;exitY=1;exitDx=0;exitDy=0;entryX=1;entryY=0.5;entryDx=0;entryDy=0;dashed=1;strokeWidth=2;strokeColor=#FF4E22;" edge="1" parent="1" source="xFs0KkS1LcG-RcoHHxcv-28" target="xFs0KkS1LcG-RcoHHxcv-20">
          <mxGeometry relative="1" as="geometry" />
        </mxCell>
        <mxCell id="xFs0KkS1LcG-RcoHHxcv-28" value="&lt;span style=&quot;font-weight: normal;&quot;&gt;&lt;font face=&quot;Times New Roman&quot; style=&quot;color: rgb(51, 0, 0); font-size: 16px;&quot;&gt;Actual and Simulated map of 2024&lt;/font&gt;&lt;/span&gt;" style="rounded=0;whiteSpace=wrap;html=1;fontStyle=1;fillColor=#f5f5f5;fontColor=#333333;strokeColor=#666666;" vertex="1" parent="1">
          <mxGeometry x="750" y="1270" width="100" height="60" as="geometry" />
        </mxCell>
        <mxCell id="xFs0KkS1LcG-RcoHHxcv-29" value="&lt;font face=&quot;Times New Roman&quot; style=&quot;font-weight: normal; color: rgb(51, 0, 0); font-size: 16px;&quot;&gt;Calibrated CA-ANN Model&amp;nbsp;&lt;br&gt;(For future LULC change&amp;nbsp; prediction)&lt;/font&gt;" style="rounded=0;whiteSpace=wrap;html=1;fontStyle=1;fillColor=#f5f5f5;fontColor=#333333;strokeColor=#666666;" vertex="1" parent="1">
          <mxGeometry x="360" y="1490" width="290" height="40" as="geometry" />
        </mxCell>
        <mxCell id="xFs0KkS1LcG-RcoHHxcv-30" value="&lt;font face=&quot;Times New Roman&quot; style=&quot;font-weight: normal; color: rgb(51, 0, 0); font-size: 16px;&quot;&gt;Predicted LULC maps of 2034, 2044 and 2054&lt;/font&gt;" style="rounded=0;whiteSpace=wrap;html=1;fontStyle=1;fillColor=#d5e8d4;strokeColor=#82b366;gradientColor=#97d077;" vertex="1" parent="1">
          <mxGeometry x="740" y="1470" width="160" height="60" as="geometry" />
        </mxCell>
        <mxCell id="xFs0KkS1LcG-RcoHHxcv-34" value="&lt;font face=&quot;Times New Roman&quot; style=&quot;color: rgb(51, 0, 0); font-size: 16px;&quot;&gt;Slope&lt;/font&gt;" style="rounded=0;whiteSpace=wrap;html=1;strokeColor=#3122FF;" vertex="1" parent="1">
          <mxGeometry x="110" y="1230" width="125" height="20" as="geometry" />
        </mxCell>
        <mxCell id="xFs0KkS1LcG-RcoHHxcv-35" value="&lt;font face=&quot;Times New Roman&quot; style=&quot;color: rgb(51, 0, 0); font-size: 16px;&quot;&gt;Elevation&lt;/font&gt;" style="rounded=0;whiteSpace=wrap;html=1;strokeColor=#FF0080;" vertex="1" parent="1">
          <mxGeometry x="110" y="1260" width="125" height="20" as="geometry" />
        </mxCell>
        <mxCell id="xFs0KkS1LcG-RcoHHxcv-36" value="&lt;font face=&quot;Times New Roman&quot; style=&quot;color: rgb(51, 0, 0); font-size: 16px;&quot;&gt;Soil Clay&lt;/font&gt;" style="rounded=0;whiteSpace=wrap;html=1;strokeColor=#000066;" vertex="1" parent="1">
          <mxGeometry x="110" y="1290" width="125" height="20" as="geometry" />
        </mxCell>
        <mxCell id="xFs0KkS1LcG-RcoHHxcv-37" value="&lt;font face=&quot;Times New Roman&quot; style=&quot;color: rgb(51, 0, 0); font-size: 16px;&quot;&gt;Soil Silt&lt;/font&gt;" style="rounded=0;whiteSpace=wrap;html=1;strokeColor=#FF0080;" vertex="1" parent="1">
          <mxGeometry x="112.5" y="1320" width="125" height="20" as="geometry" />
        </mxCell>
        <mxCell id="xFs0KkS1LcG-RcoHHxcv-38" value="&lt;font face=&quot;Times New Roman&quot; style=&quot;color: rgb(51, 0, 0); font-size: 16px;&quot;&gt;Distance to road&lt;/font&gt;" style="rounded=0;whiteSpace=wrap;html=1;strokeColor=#B5739D;" vertex="1" parent="1">
          <mxGeometry x="112.5" y="1350" width="125" height="20" as="geometry" />
        </mxCell>
        <mxCell id="xFs0KkS1LcG-RcoHHxcv-39" value="&lt;font face=&quot;Times New Roman&quot; style=&quot;color: rgb(51, 0, 0); font-size: 16px;&quot;&gt;Soil Permeability&lt;/font&gt;" style="rounded=0;whiteSpace=wrap;html=1;strokeColor=#FF3333;fillColor=#FFFFFF;" vertex="1" parent="1">
          <mxGeometry x="110" y="1190" width="125" height="30" as="geometry" />
        </mxCell>
        <mxCell id="xFs0KkS1LcG-RcoHHxcv-40" value="&lt;font face=&quot;Times New Roman&quot; style=&quot;color: rgb(51, 0, 0); font-size: 16px;&quot;&gt;Soil organic carbon&lt;/font&gt;" style="rounded=0;whiteSpace=wrap;html=1;strokeColor=#000066;" vertex="1" parent="1">
          <mxGeometry x="112.5" y="1380" width="125" height="40" as="geometry" />
        </mxCell>
        <mxCell id="xFs0KkS1LcG-RcoHHxcv-41" value="&lt;font style=&quot;color: rgb(51, 0, 0); font-size: 16px;&quot; face=&quot;Times New Roman&quot;&gt;Explanatory Variables&lt;/font&gt;" style="rounded=1;whiteSpace=wrap;html=1;fontStyle=1;strokeColor=none;" vertex="1" parent="1">
          <mxGeometry x="97.5" y="1140" width="150" height="39" as="geometry" />
        </mxCell>
        <mxCell id="xFs0KkS1LcG-RcoHHxcv-50" style="edgeStyle=orthogonalEdgeStyle;rounded=0;orthogonalLoop=1;jettySize=auto;html=1;exitX=0.5;exitY=1;exitDx=0;exitDy=0;entryX=0.606;entryY=0.983;entryDx=0;entryDy=0;entryPerimeter=0;" edge="1" parent="1" source="xFs0KkS1LcG-RcoHHxcv-29" target="xFs0KkS1LcG-RcoHHxcv-30">
          <mxGeometry relative="1" as="geometry" />
        </mxCell>
        <mxCell id="xFs0KkS1LcG-RcoHHxcv-52" style="edgeStyle=orthogonalEdgeStyle;rounded=0;orthogonalLoop=1;jettySize=auto;html=1;exitX=0;exitY=0.5;exitDx=0;exitDy=0;entryX=0.355;entryY=-0.025;entryDx=0;entryDy=0;entryPerimeter=0;" edge="1" parent="1" source="xFs0KkS1LcG-RcoHHxcv-20" target="xFs0KkS1LcG-RcoHHxcv-29">
          <mxGeometry relative="1" as="geometry" />
        </mxCell>
        <mxCell id="xFs0KkS1LcG-RcoHHxcv-61" style="edgeStyle=orthogonalEdgeStyle;rounded=0;orthogonalLoop=1;jettySize=auto;html=1;exitX=0.5;exitY=1;exitDx=0;exitDy=0;entryX=0.425;entryY=0.014;entryDx=0;entryDy=0;entryPerimeter=0;" edge="1" parent="1" source="xFs0KkS1LcG-RcoHHxcv-9" target="xFs0KkS1LcG-RcoHHxcv-10">
          <mxGeometry relative="1" as="geometry" />
        </mxCell>
        <mxCell id="xFs0KkS1LcG-RcoHHxcv-62" style="edgeStyle=orthogonalEdgeStyle;rounded=0;orthogonalLoop=1;jettySize=auto;html=1;exitX=0.5;exitY=1;exitDx=0;exitDy=0;entryX=0.569;entryY=0.036;entryDx=0;entryDy=0;entryPerimeter=0;" edge="1" parent="1" source="xFs0KkS1LcG-RcoHHxcv-12" target="xFs0KkS1LcG-RcoHHxcv-15">
          <mxGeometry relative="1" as="geometry" />
        </mxCell>
      </root>
    </mxGraphModel>
  </diagram>
</mxfile>
